<?xml version="1.0" encoding="utf-8"?>
<!-- Generator: Adobe Illustrator 26.5.0, SVG Export Plug-In . SVG Version: 6.00 Build 0)  -->
<svg version="1.1" id="Layer_1" xmlns="http://www.w3.org/2000/svg" xmlns:xlink="http://www.w3.org/1999/xlink" x="0px" y="0px"
	 viewBox="0 0 148.5 135" style="enable-background:new 0 0 148.5 135;" xml:space="preserve">
<style type="text/css">
	.st0{display:none;}
	.st1{display:inline;fill:none;stroke:#272626;stroke-width:4;stroke-miterlimit:10;}
	.st2{display:inline;fill:#272626;}
	.st3{display:inline;}
	.st4{fill:#272626;}
	.st5{fill:none;stroke:#272626;stroke-width:4;stroke-miterlimit:10;}
</style>
<g class="st0">
	<path class="st1" d="M14.8,116.5L5.5,58.3c-0.8-4.8,3-9.2,7.8-9.2h122.8c4.8,0,8.6,4.3,7.9,9l-8.4,58.3H14.8z"/>
	<path class="st1" d="M134,132H15.3c-3,0-5.5-2.4-5.5-5.5v-4.7c0-3,2.4-5.5,5.5-5.5H134c3,0,5.5,2.4,5.5,5.5v4.7
		C139.5,129.6,137.1,132,134,132z"/>
	<ellipse class="st1" cx="74.7" cy="87" rx="12.9" ry="10.2"/>
	<path class="st1" d="M36.9,45.1C37.1,22.4,54.2,4.2,75.3,4.2s38.1,18.3,38.4,40.9"/>
	<path class="st1" d="M53.4,45.3c1.2-4.1,4.5-7.1,8.3-7.1c3.9,0,7.2,3,8.3,7.1"/>
	<path class="st1" d="M79.2,45.3c1.2-4.1,4.5-7.1,8.3-7.1c3.9,0,7.2,3,8.3,7.1"/>
	<path class="st2" d="M102.4,29.7C102.4,29.7,102.4,29.7,102.4,29.7c-12.6,1-22.3,0.4-28.6-1.9c-5.1-1.8-6.6-4.2-7-5.2
		c-0.2-0.5-0.7-0.7-1.2-0.7h-0.4c-0.6,0-1,0.4-1.2,1c-0.4,2.6-4.3,5.5-5.5,6.3c-0.2,0.2-0.6,0.3-1,0.3H46.9c-0.8,0-1.3,0.7-1.3,1.3
		c0,0.8,0.7,1.3,1.3,1.3H59v0c0.9-0.1,4.6-3.2,6.5-5.7c0.1-0.1,0.3-0.2,0.4-0.3c0.1,0,0.2,0,0.3,0.1c0.3,0.3,0.6,0.6,0.9,0.8
		c4.5,3.7,12.7,5.6,24.4,5.6c2.9,0,6.2-0.1,11.2-0.5c0.6-0.1,1.1-0.7,1.1-1.4C103.7,30.1,103.1,29.7,102.4,29.7z"/>
</g>
<g class="st0">
	<path class="st1" d="M13.5,80.7c-1.3-4.9-1.9-9.9-1.9-15.1c0-17.4,7.6-33.2,19.8-44.2C42.4,11.2,57.6,4.9,74.2,4.9
		c-11.6,0-21.9,9-28.6,23c8.5,2.8,18.3,4.4,28.7,4.4L74.2,4.9c16.8,0,31.9,6.4,43.1,16.7c12,11.1,19.5,26.7,19.5,44.1
		c0,5.2-0.7,10.3-1.9,15.1"/>
	<path class="st1" d="M38,58.8c0.8-11.6,3.5-22.3,7.7-30.9c8.5,2.8,18.3,4.4,28.7,4.4L74.2,4.9c11.6,0,22,9,28.6,23.1
		c4.1,8.6,6.8,19.2,7.6,30.7"/>
	<path class="st1" d="M31.2,21.4c11.2-10.2,26.4-16.5,43-16.5c-11.6,0-21.9,9-28.6,23C40.4,26.2,35.5,24,31.2,21.4z"/>
	<path class="st1" d="M117.3,21.7c-4.3,2.5-9.2,4.7-14.6,6.5c-8.5,2.7-18.1,4.2-28.3,4.2h-0.1L74.2,4.9
		C91,4.9,106.1,11.3,117.3,21.7z"/>
	<polyline class="st1" points="74.5,44.5 74.4,32.2 74.2,4.9 	"/>
	<g class="st3">
		<path class="st4" d="M35.2,106.1l7.9-5.2l7,3.4c0.3,0.2,0.9,0.4,1.4,0.1c0.4-0.1,0.8-0.4,1-0.7c0.4-0.4,0.5-1,0.3-1.5
			c-0.1-0.5-0.5-0.9-0.9-1.1l-7-3.4l0-5.9c1.1-1.2,1.9-2.6,2.3-4c1.5-5,0.5-11.4,0.4-11.7c-0.4-3.6-1.9-7-4.3-9.1
			c-2.4-2.3-5.1-3.3-8.2-3.1c-7.8,0.7-12.5,6.8-12.5,12.2c0,0.7,0,1.4-0.1,2.1c-0.2,3.5-0.4,8.2,4.4,13.1l0,0
			c0.1,1.7-0.1,4.4-0.2,5.7l0,0.4l0,0c-11.6,4-16,11.9-17,14.3l-0.3,0.4v13.5c0,1,0.8,1.8,1.8,1.8s1.8-0.8,1.8-1.8l0-12.5l0.1-0.1
			c1-2,5-8.7,14.8-12c0,0,0.1,0,0.2,0c4.1,2.8,5.8,4.3,5.9,4.3L35.2,106.1z M35.4,73.3c-0.6-0.6-1.6-0.7-2.5-0.2l-0.1,0.1
			c-0.3,0.3-0.5,0.7-0.6,1.2l0,0.1c0,0.4,0,0.9,0.5,1.4c3.9,4,9,4,11.4,3.7c0.1,3.1-0.1,5.4-0.6,7.3c-0.8,3-3.4,4.2-5.4,4.7
			l-1.7,0.2l1,3.4h0.7c0.4,0,0.7-0.1,0.8-0.1l2.3-0.3c0,0,0.1,0,0.1,0l0,3.2l-5.7,3.8c0,0,0,0,0,0c-0.8-0.7-2.4-1.8-5.1-3.6
			c0.2-1.8,0.5-5.6,0.2-7.9l-0.3-0.7l-0.4-0.2c-4.1-4-3.9-7.2-3.6-10.7v-1.1c0-0.2,0-0.3,0-0.5c0-0.2,0-0.4,0-0.6
			c0-3.7,3.5-8.1,9.1-8.6c1.9-0.3,3.6,0.3,5.3,1.9c1.6,1.6,2.7,3.8,3.1,6.2C41.3,76.2,37.9,76,35.4,73.3z"/>
		<path class="st4" d="M138.9,111.9c-0.2-0.4-4.1-10-17-14.4l0,0c-0.3-2.7-0.4-4.8-0.3-6.3c4.7-4.8,4.5-9.1,4.4-12.9l0-0.1
			c0-0.4,0-0.7-0.1-1.1v-1c0-5.5-4.7-11.5-12.5-12.2c-3.1-0.3-5.8,0.7-8.2,3.1c-2.4,2.3-3.9,5.5-4.3,9.1c-0.5,4.8-0.4,8.8,0.4,11.7
			c0.5,1.7,1.2,3,2.3,4.1c0,0,0,0,0,0v5.7l-7.1,3.4c-0.9,0.6-1.2,1.6-0.8,2.5c0.2,0.5,0.7,0.8,1.1,1l0.1,0.1h0.1
			c0.1,0,0.2,0.1,0.3,0.1c0.4,0,0.6-0.1,0.8-0.2l7.1-3.4l8,5.2l1.1-0.8c0,0,1.7-1.4,5.9-4.4l0.1,0c9.8,3.2,13.9,10,14.9,12.1l0,12.6
			c0,1,0.8,1.8,1.8,1.8s1.8-0.8,1.8-1.8v-13.2l0.1-0.3L138.9,111.9z M118.2,89.3l-0.3,0.7l0,0.1c-0.7,0.8-1.7,1.1-3,1.1
			c-1,0-1.8,0.8-1.8,1.7l-0.1,1.7l0.8,0.2c0.5,0.1,1,0.1,1.4,0.1c0.7,0,1.6-0.1,2.5-0.4c0,1.8,0.3,3.3,0.3,3.7v0.1
			c-0.8,0.5-1.5,1.1-2.1,1.5c-0.4,0.3-0.8,0.6-1.1,0.8l-0.7,0.5c-0.4,0.3-0.7,0.5-1,0.8l-5.7-3.8c0,0-0.1-0.1-0.1-0.1v-3.1
			c0-0.3,0-0.7,0.1-1.3c0-0.2,0-0.4,0-0.7c0-0.3,0-0.7,0-1.2v-0.1l-2.6-4.8c-0.9-3.2-0.7-7.3-0.4-10.2c0.3-2.8,1.5-5.3,3.3-6.9
			c1.5-1.5,3.2-2.2,5.2-2c5.7,0.6,9.1,4.8,9.1,8.6c0,0.7,0,1.4,0.1,2.3c0.2,3.7,0.3,6.8-3.6,10.5L118.2,89.3z"/>
		<path class="st4" d="M104.3,108.2L104.3,108.2c-7-4.1-14.8-5.8-17.9-6.3c-0.3-2.1-0.8-5.4-0.8-6.3c0-0.7-0.3-1.2-0.7-1.7
			c3.6-2.5,6.8-11.9,7.9-23.2c0.5-5.7-1.1-10.9-4.7-14.6c-3.6-3.8-9-5.8-14.8-5.4c-10.4,0.7-16.5,8.1-16.8,20.4
			c-0.6,15,5.2,20.9,7,22.5l-0.1,0.7c-0.2,2.1-0.5,5.5-0.9,8.6c-12.9,1.7-21.9,6.1-26.8,12.9c-4.3,6-4.2,12.2-3.9,14.5
			c0.1,0.5,0.4,1,0.9,1.4c0.1,0,0.5,0.2,0.8,0.2c0.1,0,0.3,0,0.6-0.1c0.8-0.3,1.4-1,1.4-1.9c-0.2-3.1,0.1-7.6,3.3-12
			c4.5-6.1,12.8-10,24.7-11.4c0,0,0.1,0,0.1,0l10,7.9c0.7,0.6,1.7,0.5,2.3-0.1l9.3-9.1c4.8,0.7,28.6,5.4,28.6,24.7
			c0,1,0.8,1.8,1.8,1.8c1,0,1.8-0.8,1.8-1.8C117.6,120.9,113.2,113.6,104.3,108.2z M67.4,92.9v-1.1l-0.9-0.4
			c-1.6-1.1-6.8-6-6.2-19.9c0.3-13.2,7.4-16.4,13.3-16.9c4.7-0.3,9,1.2,11.9,4.2c1.8,1.9,3,4.2,3.5,6.9c0,0,0,0-0.1,0.1
			c-3.5,1.8-10.6,3.9-18.9-2c-0.8-0.5-2-0.3-2.4,0.4c-0.3,0.5-0.5,0.9-0.3,1.5c0.1,0.3,0.3,0.8,0.7,1.1c4.2,2.9,8.7,4.4,13.1,4.4
			c2.5,0,5.2-0.5,8.1-1.6c0,0.3,0,0.5-0.1,0.9c-1.1,11-4.2,19.2-6.5,20.6c-1.4,0.9-3.4,1.7-5.2,2.2c-0.2,0-0.4,0-0.6,0.1l-0.4,0
			c-2.3,0.3-3.8,0.5-3.8,2.2c0,0.9,0.6,1.8,1.7,1.9c0.8,0.1,2.4-0.3,3.5-0.6l0.2,0c1.3-0.2,2.7-0.2,3.6-0.2c0,0,0,0,0,0.1
			c0.1,1.1,0.3,2.5,0.5,3.9c0.1,0.8,0.2,1.6,0.3,2.3c0,0,0,0-0.1,0.1l-7.8,7.6c0,0,0,0-0.1,0l-8.5-6.9C67,99.1,67.4,93.1,67.4,92.9z
			 M89.3,69.7C89.3,69.7,89.3,69.7,89.3,69.7C89.3,69.7,89.2,69.7,89.3,69.7L89.3,69.7z"/>
	</g>
</g>
<g>
	<path class="st5" d="M10,40L73.6,5.9c0.4-0.3,0.9-0.3,1.3,0L138.4,40c1.3,0.8,0.8,2.8-0.7,2.8H10.7C9.2,42.8,8.7,40.8,10,40z"/>
	<path class="st5" d="M44.9,32.6l29.1-15.8c0.2-0.1,0.4-0.1,0.6,0l29.1,15.8c0.6,0.4,0.4,1.3-0.3,1.3H45.2
		C44.5,33.9,44.3,32.9,44.9,32.6z"/>
	<line class="st5" x1="22.1" y1="51.9" x2="22.1" y2="120.6"/>
	<line class="st5" x1="48.2" y1="51.9" x2="48.2" y2="120.6"/>
	<line class="st5" x1="74.3" y1="51.9" x2="74.3" y2="120.6"/>
	<line class="st5" x1="100.4" y1="51.9" x2="100.4" y2="120.6"/>
	<line class="st5" x1="126.4" y1="51.9" x2="126.4" y2="120.6"/>
	<line class="st5" x1="137.2" y1="120.6" x2="11.4" y2="120.6"/>
	<line class="st5" x1="137.2" y1="51.9" x2="11.4" y2="51.9"/>
	<line class="st5" x1="150.1" y1="129.3" x2="-1.6" y2="129.3"/>
</g>
</svg>
